# xmcd
# 
# Track frame offsets:
#     150
#     15555
#     32665
#     49182
#     60287
# 
# Disc length: 1049
# 
# Revision: 0
# Processed by: cddbd v1.5.2PL0 Copyright (c) Steve Scherf et al.
# Submitted via: fre:ac v1.0.17
# 
DISCID=32041705
DTITLE=Crysis - How About Now?
DYEAR=1997
DGENRE=Rock
TTITLE0=Concrete Soldiers
TTITLE1=Pausing Wind
TTITLE2=Rose and Blade
TTITLE3=Little Gremlin
TTITLE4=There You Go
EXTD=
EXTT0=
EXTT1=
EXTT2=
EXTT3=
EXTT4=
PLAYORDER=
